<svg xmlns="http://www.w3.org/2000/svg" width="66" height="81" fill="none"><path fill="#ED3237" d="M58.088 3.043a.295.295 0 0 0 .032-.068.16.16 0 0 0-.032.068ZM52.695 1.519l.071-.026c-.044-.001-.063.01-.071.026ZM61.204 4.228c-.007.004-.008.008-.014.013l.215.091-.201-.104ZM40.72 1.035l.076-.012c-.034.004-.057 0-.075.012ZM47.84.996c-.022.03-.06.04-.096.05.046.005.083-.001.096-.05ZM62.23 6.293l-.043-.131a.113.113 0 0 0 .043.131ZM65.302 7.356c.002-.009.005-.015.005-.027-.01.006-.009.016-.005.027ZM64.382 6.375c-.03-.004-.066-.002-.104-.001.037.015.081.038.104.001Z"/><path fill="#ED3237" d="m64.228 6.377.052-.003c-.024-.008-.045-.014-.052.003ZM1.277.071C1.215.013 1.11.026 1.011.026l.266.045ZM30.176 3.268l.009-.048c-.015.019-.015.035-.009.048ZM.607.69.571.629a.1.1 0 0 0 .036.06ZM60.548 5.925c-.121.064-.258-.114-.29-.02.098.017.201.136.29.02ZM28.979 7.542l-.065.021a.223.223 0 0 0 .065-.021Z"/><path fill="#ED3237" d="m.606.688.043.069C.657.737.66.72.665.702A.1.1 0 0 1 .606.688ZM19.834 4.885h.004l.022-.021-.026.02ZM19.28 4.74c.038-.011.075-.024.116-.038-.062-.008-.094.011-.116.037ZM1.01.026.862 0a.33.33 0 0 0 .148.026ZM13.387 4.477a.3.3 0 0 0 .056-.004c-.023-.005-.042-.004-.056.004ZM48.294 1.069c.015.01.036.016.053.024.007-.024.004-.041-.053-.024ZM44.012 3.856h-.002v.003c0-.002.002-.003.002-.003ZM44.228 3.716c-.071-.019-.168.06-.216.14.07-.004.135-.03.216-.14ZM43.526 3.834l.03.012a.065.065 0 0 0-.03-.012ZM48.045 3.924V3.91l-.004.012.004.002ZM47.155 3.93a.167.167 0 0 0-.064-.048.133.133 0 0 0 .064.048ZM41.338 4.335v-.007c-.003 0-.003.002-.007.003a.05.05 0 0 1 .007.004Z"/><path fill="#ED3237" d="m48.158 3.949-.114-.03a.125.125 0 0 1-.061.113l.176-.083ZM42.682 4.031c-.014.015-.028.029-.039.05.029-.01.036-.03.039-.05ZM41.385 4.444c.09-.048.001-.078-.05-.112.002.031.008.07.05.112ZM51.288 3.728a.073.073 0 0 0-.037.068c.03-.027.039-.048.037-.068ZM59.658 5.61c-.008-.01-.016-.019-.026-.034.003.013.012.025.026.035ZM59.283 5.224a.238.238 0 0 0-.1-.01c.038.022.07.02.1.01ZM49.198 3.626a.14.14 0 0 0-.093.047.112.112 0 0 0 .093-.047ZM59.08 5.218l-.111-.051c-.004.01-.008.017-.011.03l.121.02Z"/><path fill="#ED3237" d="M59.793 5.675c-.042-.02-.102-.04-.136-.066.043.06.087.076.136.066ZM54.459 3.962c-.004.002-.009 0-.014.002-.108.053-.043.034.014-.002ZM58.5 5.328l-.015-.01-.047.032.061-.022ZM60.26 5.904a.098.098 0 0 0-.067.007.9.9 0 0 0 .059.042c0-.023.004-.037.008-.049ZM56.18 4.562a.297.297 0 0 0 .075-.115c-.04-.007-.07.013-.076.115ZM33.349 20.578a.29.29 0 0 0-.025-.07.161.161 0 0 0 .025.07ZM28.362 23.048l.037-.067c-.034.028-.041.049-.037.067ZM36.343 19.166c-.001.008.001.012.001.019l.211-.097-.212.078ZM18.837 30.922l.045-.077c-.022.034-.042.052-.045.077ZM24.277 25.727c.001.037-.021.07-.044.1.04-.025.064-.053.044-.1ZM38.592 19.738l-.13-.052c.022.04.072.067.13.052ZM41.378 17.9c-.006-.006-.01-.012-.02-.02 0 .012.009.017.02.02ZM40.026 18.085c-.022.021-.043.052-.065.084.035-.021.08-.043.065-.084Z"/><path fill="#ED3237" d="m39.933 18.211.03-.044c-.022.014-.04.027-.03.044ZM29.959 6.12c-.03-.098-.135-.155-.227-.219l.227.219ZM25.244 37.787l.019.047c.003-.026-.006-.04-.019-.047ZM29.064 6.306l-.003-.074a.114.114 0 0 0 .003.074ZM37.166 20.788c-.036.134-.266.117-.218.204.081-.061.244-.06.218-.204ZM23.636 33.648l.032-.052a.177.177 0 0 0-.032.052ZM29.064 6.304l.005.084c.016-.013.027-.026.04-.04a.107.107 0 0 1-.044-.044ZM31.031 27.62l-.001.005.01.03-.009-.034ZM31.38 27.073l-.008.137c.031-.064.026-.105.009-.137ZM29.732 5.901l-.133-.126a.45.45 0 0 0 .133.126ZM32.429 20.441a.38.38 0 0 0 .008.065.103.103 0 0 0-.008-.065ZM24.678 25.494c.018 0 .038-.01.057-.014-.01-.023-.023-.034-.057.014ZM23.201 30.376l-.001.002.002.002v-.004Z"/><path fill="#ED3237" d="M23.262 30.133c-.067.031-.082.153-.061.244.045-.05.073-.112.06-.244ZM22.847 30.681l.03-.011a.06.06 0 0 0-.03.011ZM26.287 27.865l-.008-.01c.002.005.002.007.005.011h.003ZM25.6 28.432a.161.161 0 0 0-.079.003.131.131 0 0 0 .078-.003ZM21.823 32.468l-.004-.003-.001.005.005-.002Z"/><path fill="#ED3237" d="m26.393 27.814-.107.05a.125.125 0 0 1 .023.126l.084-.176ZM22.41 31.375c.001.02.002.038.01.06.011-.025.002-.044-.01-.06ZM21.939 32.505c.013-.088-.061-.05-.117-.036.027.018.06.037.117.036ZM28.7 25.644a.07.07 0 0 0 .014.075c.007-.04 0-.062-.015-.075ZM36.306 21.244c-.014-.002-.026 0-.044-.005.011.008.027.009.044.005ZM35.756 21.255a.249.249 0 0 0-.077.069.12.12 0 0 0 .077-.069ZM27.002 26.905a.137.137 0 0 0-.045.095.11.11 0 0 0 .044-.095ZM35.607 21.404l-.116.044.013.029.103-.073Z"/><path fill="#ED3237" d="M36.45 21.188c-.045.018-.102.049-.146.056.075.009.118-.013.146-.056ZM31.306 23.734c-.002.004-.007.006-.01.01-.048.11-.01.054.01-.01ZM35.267 21.9l-.018.003-.01.057.028-.06ZM36.949 20.992a.102.102 0 0 0-.042.056.942.942 0 0 0 .072-.017.146.146 0 0 1-.03-.039ZM33.014 23.001a.295.295 0 0 0-.023-.136c-.035.022-.044.059.023.136ZM32.67 69.286c.02.004.042.006.073.003a.142.142 0 0 0-.073-.003ZM32.521 62.98l.037.073c-.006-.048-.02-.066-.037-.073ZM33.32 73.018c-.007-.004-.011-.003-.019-.004l.06.26-.041-.256ZM34.102 49.636l-.011.084c.007-.038.018-.061.011-.084ZM32.804 57.515c-.029-.027-.037-.07-.044-.11-.008.05-.004.092.044.11ZM32.473 75.44l.059-.142c-.042.017-.072.07-.06.141ZM34.45 78.953c.005-.007.01-.011.017-.022-.012 0-.016.009-.017.022ZM34.154 77.378c-.022-.027-.054-.055-.086-.084.022.043.045.097.086.084Z"/><path fill="#ED3237" d="m34.024 77.258.046.04c-.015-.028-.029-.049-.046-.04ZM50.15 2.891c.05-.108.017-.228-.002-.354l.002.354ZM36.935 37.724l.037.037c-.008-.027-.022-.036-.037-.037ZM49.374 2.407l.053-.069a.152.152 0 0 0-.053.069ZM31.56 73.482c-.13-.085-.078-.35-.173-.321.05.115.023.306.172.321ZM34 34.107l.017-.076a.288.288 0 0 0-.018.076Z"/><path fill="#ED3237" d="m49.375 2.405-.06.078c.022 0 .04-.004.06-.006a.137.137 0 0 1 0-.072ZM41.032 25.58l-.002.004.009.032-.007-.036ZM41.426 25.002l-.02.147c.037-.068.035-.112.02-.148ZM50.148 2.537l-.002-.206a.559.559 0 0 0 .002.206ZM44.016 18.125a.438.438 0 0 0-.014.069.124.124 0 0 0 .014-.07ZM32.712 58.021c-.011.017-.018.04-.027.06.024.008.042.005.027-.06ZM30.495 52.677v-.003h-.003c.002 0 .003.003.003.003Z"/><path fill="#ED3237" d="M30.584 52.966c.034-.084-.023-.216-.09-.291-.011.087 0 .17.09.29ZM30.624 52.09l-.018.033a.084.084 0 0 0 .018-.033ZM29.866 57.647h.014l-.012-.004-.002.004ZM29.923 56.535a.21.21 0 0 0 .053-.074.164.164 0 0 0-.053.074ZM30.755 49.324c.001.002.004.002.006.002v-.008l-.006.006ZM29.832 57.788l.034-.143c-.035-.002-.075-.01-.11-.08l.076.223ZM30.651 51.025c-.01-.02-.02-.04-.037-.06.002.037.019.051.037.06ZM30.632 49.347c.014.122.073.025.123-.025-.03-.008-.07-.012-.123.025ZM30.146 61.667c-.016-.026-.038-.042-.072-.037.03.034.052.042.072.037ZM31.252 72.324c.005-.016.007-.03.015-.05-.01.011-.015.029-.015.05ZM31.357 71.684a.366.366 0 0 0-.05-.114.17.17 0 0 0 .05.114ZM30.133 59.08a.185.185 0 0 0-.046-.114c.001.062.022.093.046.115ZM31.244 71.459l-.018-.15c-.01.002-.019.001-.031.004l.049.146ZM31.278 72.512c-.008-.059-.027-.137-.025-.19-.024.084-.011.142.025.19ZM30.5 65.57l-.004-.016c-.077-.112-.043-.04.005.016ZM30.843 70.873l.003-.022-.053-.036.05.058ZM31.388 73.16a.137.137 0 0 0-.049-.065c0 .024.003.052.006.088a.118.118 0 0 1 .043-.023ZM30.492 67.822c.064.035.106.046.136.043-.009-.049-.04-.077-.136-.043ZM33.275 6.724c.197-.07.408-.155.625-.243l.33-.136.34-.125c.454-.163.913-.312 1.325-.382.128-.252.387-.31.637-.41l.087.267.198-.132c.105.064-.156.085.022.156l.046-.186c.038.094.569-.05.247.22l.838-.172c.188-.025.066-.247.285-.215.057.072-.064.067-.029.162.653.1.623-.653 1.227-.628l-.044.045c.088-.09.277-.113.274-.153-.118-.265-.081.169-.284.035-.022-.236.201-.164.162-.34.15.06.211-.08.33-.11.225.118.504-.026.683.137.09-.087.171-.332.387-.371.177.162-.015.18.204.22l.017-.14c.175-.003.152.039.154.104.184-.02.131-.204.373-.141l-.114.145c.165-.07.238-.053.477-.064.003.079-.093.083-.165.067.15.19.212-.11.284-.094-.026-.058-.194-.069-.127-.211.12.013.234-.21.335-.058l-.116.145c.237-.13.116-.184.405-.16-.015.013-.004.046-.008.075.165-.191.414-.063.681-.063l-.048.04c.104-.053.154-.18.213-.173-.158-.07-.12-.112-.144-.243.219.213.29-.281.631-.169 0 .079-.074.18-.17.102-.097.239-.098.437-.289.558.12-.062.264-.104.24-.004l.024-.218c.075-.01.135-.002.192-.005.024-.139-.167-.214.003-.314.193-.083.118.214.143.115.267-.103.1-.239.366-.185-.025.02-.074.06-.098.042.192.072.46-.067.527.194-.025.06-.027.137-.099.117l.001-.04c-.197.195.17-.056.116.18-.02-.139.243-.115.362-.093l-.043-.158c.38-.488-.01.316.377.243.244-.115-.095-.042.054-.158.168.023.233.163.475.087.07.06.21.141.223.321.146-.07.447.083.53-.09-.253-.152-.25.185-.546-.049l.08-.173c.206.01.468-.076.61-.012-.029-.035-.041-.08-.023-.117.293-.063.38-.237.666-.183.034.16-.132.131-.254.145.182.129.192.008.476.065.012.138-.192-.012-.227.125.105-.015.21-.028.316-.037-.002.008 0 .018-.001.028.052-.23.24.03.434-.032.455.02.539-.29.804-.467.065.065.082.126.05.183-.108-.108-.092-.026-.134.033.157-.02.325.246.234.334.248-.05-.081-.129.072-.19l.334.04c-.031-.123-.148-.157.032-.235.15-.022.219.006.41.028-.032.057.047.185-.096.167.089.052.232.068.298-.043-.202-.124.353-.077.212-.273.067.04.134.08.2.125-.047-.007-.06.07-.128.042.044.183.176-.034.251-.044.071.043.261.08.27.15.071-.042.23.014.25.11.102-.026.02-.117.055-.173l.334.051c.006.102.002.38-.053.413.137-.08.08-.289.27-.26-.133.178.232.182.046.39.09.157.397.194.574.167.126-.138-.171-.112-.14-.267.485.01.58-.417.923-.29a2.233 2.233 0 0 0-.085-.058c.235-.053.206-.036.357-.146-.092.182.165.562.53.582.048-.091-.17-.219-.084-.362l.246.013c.015.018-.017.046-.053.065.23-.033.354.32.458.11l.162.325-.062-.138c.048-.089.293-.068.35-.095.268-.055.34.045.448.194-.026-.087-.094-.288.106-.279-.069.306.377.21.335.367.079.015.192.143.232.018l-.059.188c.081-.264.36-.184.588-.181-.14.349.244.032.253.388.104-.235.404.005.498-.194.169.033.089.256.109.345l.102-.07c.051.133.35.246.507.377l.233-.164.033.116c.043-.047.194-.036.131-.142l.088.04c.08-.232.149-.027.362-.065.03.051.001.103-.048.122.09.032.012.139.036.233-.046-.082.463-.31.252-.496.014-.1.182-.122.258-.05l-.015.226.182-.184c.152.016.167.169.27.234-.12-.029-.393.308-.097.41-.164-.031-.28.06-.376.077.059.029.082.059-.043.116.252.012.121-.104.357-.049-.078.181-.035.264.138.399l-.098-.19a.123.123 0 0 1 .046-.04c-.049-.04-.055-.075-.041-.15.043.017.345-.135.343-.009-.126-.372.483-.078.4-.304.047-.046.212.004.193.104-.243.065.063.266-.018.382.091-.026-.096-.195.026-.227.118.032.157.177.196.26l-.06.016.14.15c.066-.08-.106-.221.073-.206.027.055.207.07.172.141-.126.096-.139.284-.286.263.118.028.48.155.407-.075l.13.062c-.05-.112-.229-.35.05-.261l-.017.035.244-.059.042.129c.017-.047.065-.077.133-.045-.005.062.051.112.014.182.205.075.227-.02.277-.062.117.038.142.094.043.177.14.093.417.188.474.332.238.016-.023-.058.151-.122.013.198.163.307.354.382.188.078.418.124.589.187.053-.311.103.016.29-.193-.113.047.192.37-.126.293l.184.064c.036.207-.338-.042-.272.251.192.092.475-.127.64.095-.18.142.203.036.03.207-.083.04-.132-.014-.202-.035l.018.058c.366.286.242-.15.527-.15.258.125.1.26.062.353.015.058.15.104.239.096-.206.02-.193-.28-.053-.352-.024.269.34.244.44.199-.069-.205-.143-.254-.191-.294-.053-.041-.104-.08-.197-.302-.086.038-.191.229-.344.033.18-.018.053-.11.035-.162-.024.13-.167-.037-.255-.027-.007-.12.267-.18.083-.344l-.184.235c-.06-.085.14-.17-.068-.206.17-.082.087-.225.349-.131-.161-.384-.508-.123-.776-.148.031-.005.052-.038.083-.043-.083.042-.169-.006-.242-.024-.118-.136.178-.059.177-.15l-.245-.117c0-.011.001-.016.004-.022-.082.004-.154-.003-.144-.08.114-.048.187-.121.271-.165l-.348.054c.072-.073-.139-.254.077-.228l-.402-.149.053-.195c-.108-.013-.127.022-.027.097-.112-.11-.733.048-.5-.279-.372.01-.457-.096-.87-.16.36-.048-.24-.355.098-.304-.147-.155-.265.026-.42.002-.1-.131.03-.29.204-.3l-.205.017.018-.035-.19.046c-.117-.16.04-.198-.113-.288l-.098.15-.073-.139c.012.092-.096.087-.22.055l.017-.036-.156-.02c.18-.049-.119-.084-.01-.178-.12-.053-.124-.052-.358-.103l-.002.128c-.325-.007.049-.173-.185-.268l-.03.136c-.266-.34-.624-.07-.828-.297.155.017.168-.147.153-.11-.234-.028-.582-.174-.86-.08-.025-.218-.027-.281-.238-.438-.175-.04-.205-.03-.293.066-.146-.12-.49-.092-.46-.235-.069.101-.145-.063-.262.007l-.004-.063-.02.138c-.22-.382-.543.039-.78-.293l.061-.024-.14.023c-.005-.064.055-.088.08-.163l-.586-.165.093.129c-.128-.015-.24.094-.364-.017.282-.154-.195-.048-.2-.212l.139-.027c-.178-.024-.178-.024-.192.116-.235.001-.102-.291-.34-.187l.147.036c.027.088-.102.178-.2.154-.02-.025-.077-.1.002-.102-.188.017-.442-.111-.531-.068-.089-.06-.04-.15.02-.178-.405.054-.169-.056-.574-.003l.02-.077-.148.07-.16-.197.05.113c-.128-.008-.215.033-.355-.037l.077-.105c-.366.007-.385-.253-.749-.14-.02-.025.038-.054.068-.068-.34.138-.211-.24-.559-.062.025-.037-.004-.09.013-.121l-.155.055.03-.155-.146.215-.07-.171-.065.07c-.12-.318-.367-.115-.556-.363l.016.202c-.29.18-.588.082-.902-.026-.313-.109-.642-.246-.974-.175l.022-.156-.28.165c-.138-.134.094-.128.054-.212-.294.067-.134.225-.47.255-.166-.113.065-.113.149-.166-.318.065-.783.133-1.002.036-.006.021-.02.049-.01.058-.21.061-.483-.018-.713-.007.006-.072.063-.083.121-.098-.083-.01-.195-.06-.267.013l.089-.136c-.178-.028-.52.094-.559-.066.021.061.012.18-.14.171-.086-.24-.416.095-.662-.027.028-.059.208-.074.157-.076-.124-.062-.233.055-.34.133l.032-.098-.568.15c-.092-.238-.537.052-.505-.125-.204-.003.176.101-.08.136-.074-.098-.231.056-.228-.101l.027-.02c-.06.006-.12.015-.18.022l.107-.16a.376.376 0 0 0-.262.322c-.15-.077-.355.007-.43-.13l.052-.04c-.407.087-.714-.38-1.02-.097-.027-.02-.027-.06.024-.06a4.685 4.685 0 0 0-.256.01l.05-.122-.406.22-.001-.078c-.282-.005-.715.08-1.07.139l.049-.043c-.378.158-.386-.033-.661.09.007-.022.016-.031.026-.037l-.257.037.047-.083c-.168.193-.573-.146-.437-.02-.097.088-.27.203-.288.304-.278.045-.083-.092-.265-.134-.204.021-.22.153-.503.13l-.007-.079c-.126.036-.196.105-.371.147l.046-.046c-.262.212-.4-.168-.57.21-.131-.042-.353.046-.37-.111a6.784 6.784 0 0 1-.479.204l-.477.192c-.107-.243-.073.032-.317-.07l.043.133c-.249.061-.534.037-.827.02a4.5 4.5 0 0 0-.44-.011 1.562 1.562 0 0 0-.42.08l-.047-.132-.075.175c-.304.04-.651.094-.982.151a8.58 8.58 0 0 0-.878.187c-.135.113-.323.34-.58.359l.021-.026c-.398.195-.84.38-1.306.427.01-.064-.044-.092-.006-.141-.06.176-.252.078-.345.1l.137.07c-.086.16-.298.087-.388.007l-.154.198c-.016-.01-.042-.025-.05-.046l-.015.08-.153-.148c-.038.05-.282.167-.317.358-.035-.053-.229-.05-.097-.12l-.362.072-.364.06.128.036c.048.13-.146.268-.273.232.119-.143-.036-.194-.122-.278-.08.095.113.099.08.185-.1.12-.348.228-.428.182l.06-.071c-.154.09-.286-.127-.446-.077-.122.144-.253.069-.17.294-.203.099-.118-.138-.192-.145-.075.139-.39.12-.453.012-.046.366-.6-.01-.585.287l-.207-.129c.01.079.008.26-.129.32-.15-.058-.143-.2-.199-.27l-.037.305c-.415-.077-.87-.044-1.331.013-.231.025-.464.06-.694.066-.231.006-.46-.003-.68-.042-.37.103-.836.305-1.285.29l.046-.041-.448-.045.332.109c-.094.041-.165.103-.259.106a6.855 6.855 0 0 0-.834-.1 2.558 2.558 0 0 0-.905.075c-.378.35-.264-.285-.628-.033.031-.03.042-.079.07-.112-.395.111-.61.169-1.013.366.05-.334-.26.007-.222-.17l-.036.137c-.088-.08-.295-.118-.263-.215l-.18.161-.011-.14c-.231-.02-.738.073-.844-.214-.293.098-.664.092-1.052.067-.194-.016-.392-.032-.585-.067l-.557-.106c-.114.1-.325.084-.49.076-.05-.062-.1-.123-.15-.189-.17.024-.378.202-.515.072a.058.058 0 0 1 .024-.04c-.173.007-.316-.106-.5.02-.183-.035-.342-.163-.258-.302-.07.267-.375-.117-.375-.117l-.398-.107c-.255-.061-.614-.182-1.056-.305a46.34 46.34 0 0 1-3.276-1.132 76.719 76.719 0 0 1-3.56-1.508C2.868.545 1.938.14 1.277.07 1.132.126.92.058.872.23.716.162.832-.062.73.03.734.065.738.114.713.145a.42.42 0 0 1-.1.092C.534.298.445.363.468.5L.346.431c-.09.048.21.045.068.152l.2-.162c.06.105.074.186.05.279.15-.003.42-.225.53.055L1.128.722c.173.125 0 .21.01.271L1.102.962l.067.213c-.06-.15-.367-.135-.264-.07.161.22-.014-.091.159.007.105.063-.006.15-.059.209l.182.127c-.077.09-.113-.095-.115.057.1.024.199.047.3.067-.134.272.328.062.27.364-.207-.057-.043.093-.124.154l.422.268c.016.061-.16.002-.089.033.032.122.17.024.211.054-.008.092.316.198.198.359.219.295.255-.138.466.123-.027.125-.231-.106-.175.073l.305.133c-.055.035-.154.134-.248.048.684.592.826 1.388 1.655 1.617.043.18-.119.049-.237.097.317.047.475.21.617.39.143.176.27.365.514.464l.056-.105c.258.322.624.5 1.005.666.384.163.793.286 1.158.5L7.31 6.7c.144-.067.323-.027.468-.034 0 .063-.174.21.07.237-.034-.056-.116-.129-.07-.174.575.529 2.048.861 3.158 1.255.393.055.789.137 1.188.22.4.073.804.157 1.206.24.404.073.809.14 1.209.199.4.061.797.082 1.185.1-.236-.01-.112-.293.059-.211.45.54.842-.03 1.32.33.228-.03.447-.024.662-.003.214.013.425.04.634.06.21.021.417.035.625.02.207-.014.414-.06.62-.165l.02.14c.127.058.158-.04.288-.059l-.002.04c.313.04.68-.115.862-.055l.003-.158c.182-.022.102.12.284.018v.079l.208-.166c-.003.277.517-.018.672.095.117-.033.285-.089.468-.132.092-.022.188-.04.283-.053.095-.015.19-.023.28-.02.081.133.52.08.807.119.27-.054.6-.1.943-.17.345-.063.71-.12 1.057-.15l-.042-.174.177-.04c.004.039.031.056.007.079.174.177.403-.124.567-.032-.119-.143-.128.001-.231.013-.162-.063-.05-.248.16-.202l.003.04.117-.12c.04.135.174.175.215.308.58-.15.93-.459 1.542-.521-.028.166.42-.14.36.152.335-.185-.108-.2.013-.425.1-.02.188-.117.229-.023-.033.074.118.14.043.184l.234-.077c.027.014-.016.064-.039.087.448-.272.91-.025 1.303-.301.008-.104-.178.02-.172-.083.383-.312.43.063.798-.185l-.048.153c.107-.126.132-.254.377-.209.081.144-.148.176-.232.277.15-.035.514-.18.36-.286.163-.1.266.019.375.033-.009-.038-.196-.055-.113-.155.132.01.296-.013.453-.045.153-.03.31-.07.448-.102.009.038.045.09.026.115.163-.26.238.087.527-.04v.001Z"/><path fill="#ED3237" d="M21.529 35.543c-.079.066-.223.12-.23.17-.044.046-.124.047-.127-.005-.086.06-.145.08-.188.08-.041-.001-.066-.02-.096-.037l.265-.11a.462.462 0 0 1-.092.006c.081-.031.054 0 .155-.043a2.41 2.41 0 0 1-.172.038c.048-.014.063-.034.092-.046.028-.014.07-.012.17-.022l.002-.02v-.01l.001-.005.005-.025.02-.114c.023-.1-.224-.1-.12-.225.087-.01.042.062.142.072a.262.262 0 0 0 .068-.248.794.794 0 0 0-.104-.26c-.045-.089-.102-.176-.113-.275a.404.404 0 0 1 .08-.304l.018.054c-.038-.107.035-.257.003-.276-.288-.05.1.147-.11.225-.213-.103-.045-.231-.212-.294.133-.08.042-.203.078-.311.108-.055.164-.154.228-.247.067-.092.135-.177.251-.198-.021-.116-.177-.327-.086-.508.233-.023.137.114.294-.006l-.102-.095c.098-.118.117-.077.17-.039.09-.131-.092-.216.095-.34.012.057.03.114.048.17.034-.155.102-.192.235-.358.061.05.006.116-.05.153.235.025.047-.211.103-.25-.059-.022-.17.084-.236-.055.084-.072-.01-.302.164-.266l.035.177c.048-.248-.063-.204.149-.377-.001.018.03.034.048.056-.024-.24.234-.313.413-.49l-.005.059c.035-.106-.017-.23.028-.264-.158.054-.161-.002-.269-.08.301.01.012-.398.332-.544.052.058.069.18-.052.188.094.24.23.384.18.597.041-.123.113-.248.164-.159l-.132-.175c.045-.057.094-.09.13-.13-.076-.118-.262-.046-.21-.233.081-.19.23.081.18-.01.13-.246-.085-.24.15-.37-.006.03-.016.092-.046.094.193-.067.298-.347.516-.196.021.062.071.122.007.154l-.026-.03c-.012.276.085-.155.201.06-.109-.094.104-.245.208-.304l-.135-.092c-.033-.613.198.246.44-.055.108-.243-.098.028-.062-.155.14-.09.277-.026.418-.233.093.004.253-.02.377.109.065-.15.389-.224.341-.412-.287.047-.07.304-.442.315l-.05-.185c.163-.123.302-.363.455-.4-.044-.009-.082-.035-.092-.076.188-.232.146-.422.403-.559.128.102-.02.185-.106.271.223-.014.156-.112.411-.248.098.1-.155.112-.096.24.073-.076.144-.155.22-.23.004.008.011.015.018.023-.106-.212.205-.129.317-.3.366-.276.235-.57.335-.87.093.01.145.046.156.11-.154-.016-.09.037-.085.11.113-.111.412-.015.396.112.16-.199-.145-.047-.065-.195l.285-.185c-.102-.074-.215-.025-.124-.202.101-.114.173-.137.339-.24.01.064.154.113.03.19.103-.017.227-.095.207-.222-.237.032.23-.283-.006-.345l.237-.032c-.042.025-.001.094-.073.115.152.115.114-.14.166-.198.08-.014.253-.11.306-.06.028-.079.187-.137.265-.078.063-.085-.06-.102-.068-.167l.294-.176c.07.073.247.29.225.35.056-.15-.125-.273.043-.373.012.222.298-.015.289.266.172.06.435-.116.555-.253.008-.189-.207.028-.283-.11.384-.313.175-.7.526-.827l-.104.013c.146-.196.135-.166.177-.349.05.2.497.31.791.08-.025-.101-.275-.05-.305-.215l.197-.154c.023.004.017.046.003.084.154-.174.486.004.423-.225l.34.128-.139-.058c-.023-.099.175-.253.2-.312.164-.222.288-.196.471-.16-.079-.047-.268-.148-.11-.276.16.274.423-.111.5.033.068-.044.242-.031.184-.15l.088.178c-.122-.247.14-.383.313-.538.141.35.201-.148.457.098-.09-.243.3-.284.229-.492.146-.096.247.12.325.168l.024-.122c.135.062.428-.083.639-.104l.05-.282.108.057c-.002-.064.113-.165-.008-.194l.091-.035c-.11-.22.089-.125.211-.311.059.013.076.07.054.12.087-.046.11.085.197.132-.092-.023.1-.553-.185-.526-.063-.079.038-.216.144-.223l.156.166-.008-.259c.118-.1.241-.006.36-.041-.103.07-.044.504.237.347-.136.105-.15.253-.206.335.063-.024.102-.021.055.11.189-.178.01-.158.215-.3.081.18.172.202.395.162l-.21-.053a.12.12 0 0 1 .002-.06c-.065.009-.095-.01-.142-.07.044-.022.14-.35.233-.265-.365-.154.277-.413.049-.502-.002-.064.147-.156.209-.077-.115.23.243.126.277.264.042-.086-.213-.054-.155-.168.104-.07.242-.003.332.02l-.03.057.212-.01c-.017-.101-.242-.063-.109-.19.06.016.194-.11.226-.038-.013.159.124.29.006.39.104-.07.446-.272.22-.363l.135-.062c-.121-.032-.423-.045-.17-.206l.017.036.117-.226.127.05c-.025-.044-.016-.1.054-.132.045.044.12.032.151.105.195-.11.133-.191.133-.256.106-.069.167-.053.167.077.165-.053.42-.21.572-.168.165-.182-.06-.016 0-.196.33.221.737-.216 1.055-.418-.223-.225.076-.075.019-.351-.031.12.421.056.163.273l.166-.114c.195.09-.243.254.041.37.197-.106.187-.467.472-.48.012.23.153-.15.194.09-.016.093-.092.103-.152.15l.06.018c.467-.153.02-.288.189-.53.258-.15.284.053.342.137.06.017.18-.075.228-.158-.109.193-.36.02-.341-.138.22.165.41-.167.44-.286-.49-.058-.271.11-.75.03-.018.093.083.285-.173.307.09-.162-.061-.105-.115-.119.096.094-.129.119-.173.197-.105-.063.006-.323-.237-.264l.086.286c-.106.001-.057-.212-.21-.06.032-.187-.134-.202.095-.364-.406-.084-.398.341-.581.55.015-.028 0-.065.016-.094-.016.094-.107.133-.168.181-.181.014.062-.178-.013-.232l-.243.127c-.01-.006-.013-.01-.016-.016-.046.068-.096.123-.151.068.031-.121.017-.224.032-.317l-.168.311c-.015-.1-.288-.045-.135-.2l-.365.226-.121-.162c-.076.078-.061.114.06.081-.152.025-.424.6-.531.216-.226.296-.363.294-.68.566.196-.304-.424-.044-.168-.27-.213.011-.15.222-.27.32-.166-.009-.2-.211-.095-.347l-.12.164-.016-.037-.089.172c-.198-.017-.123-.16-.29-.105l.048.174-.152-.038c.077.052.002.13-.103.201l-.016-.036-.12.1c.085-.164-.14.032-.138-.111-.12.053-.122.056-.316.194l.093.087c-.223.236-.095-.152-.32-.044l.078.115c-.426-.036-.475.404-.78.397.12-.1.009-.224.025-.187-.178.152-.523.3-.65.56-.173-.134-.22-.178-.478-.138-.149.096-.162.126-.156.256-.188.016-.413.273-.492.15.023.12-.146.055-.18.187l-.047-.042.081.114c-.418-.119-.359.406-.76.325l.027-.059-.085.112c-.048-.043-.021-.101-.056-.173l-.533.281.154.03c-.102.077-.107.235-.275.235.102-.3-.177.095-.292-.024l.084-.112c-.146.1-.146.1-.063.213-.172.157-.27-.148-.375.09l.132-.072c.08.046.045.2-.043.248-.031-.006-.124-.022-.067-.077-.127.139-.396.217-.436.306-.106.013-.13-.088-.103-.146-.268.303-.165.065-.431.373l-.036-.07-.064.15-.25-.042.113.05c-.1.079-.139.168-.289.207l-.01-.13c-.272.243-.459.055-.658.377-.031-.005-.007-.065.006-.095-.167.325-.314-.046-.462.314-.005-.044-.06-.066-.068-.1l-.081.142-.077-.138.028.259-.164-.087-.006.095c-.296-.167-.354.145-.658.075l.142.145c-.11.318-.395.443-.708.556-.313.112-.657.21-.865.48l-.082-.135-.111.309c-.19-.017-.009-.16-.093-.2-.184.24.04.26-.206.491-.202.015-.02-.128.012-.22-.21.244-.527.599-.76.662.01.02.015.05.03.05-.126.18-.388.297-.563.45-.041-.06-.003-.105.033-.153-.071.045-.192.077-.202.18l-.016-.162c-.159.091-.35.402-.483.304.056.034.122.128-.001.224-.22-.13-.26.351-.534.413-.014-.062.118-.19.077-.16-.138.034-.15.192-.185.32l-.038-.096c-.12.157-.233.328-.35.49-.226-.12-.386.398-.476.242-.161.135.203-.041.027.159-.121-.024-.14.204-.24.083l.007-.034-.126.14-.022-.193c-.094.138-.07.33.007.42-.17.046-.275.246-.424.198l.013-.067c-.253.357-.811.24-.85.676-.033.006-.06-.023-.024-.064l-.187.208-.046-.127-.159.47-.057-.054a2.527 2.527 0 0 0-.174.19 5.292 5.292 0 0 0-.177.251c-.119.178-.238.368-.346.538l.004-.07c-.145.445-.3.333-.403.663-.012-.02-.013-.035-.01-.047-.05.085-.11.175-.15.256l-.038-.091c.052.263-.474.419-.287.373.01.14-.002.358.069.432-.127.282-.124.023-.268.168-.103.203.002.292-.19.543l-.07-.037c-.044.143-.027.25-.093.446l-.012-.07c.015.187-.08.258-.146.343-.065.083-.108.168.013.351-.053.06-.09.16-.131.238-.04.082-.082.144-.157.116l-.015.34-.01.159-.003.166c0 .229-.017.412.004.737-.132.043-.129.078-.113.145.02.07.036.161-.022.358l.136-.038c.01.108.015.218.018.331.002.114.005.228.018.344l.032.358c.014.12.042.24.067.362.106.483.327.98.713 1.313l-.081.117c.084.016.17.025.257.03.378.388.92.735 1.499.942a4.502 4.502 0 0 0 1.594.272c.273-.08.64-.281 1.039-.329l-.037.028c.672-.245 1.29-.607 1.922-1.016 0 .074.086.06.042.142.026-.115.105-.19.2-.25.094-.059.198-.108.256-.167-.07.022-.137.044-.209.06a.5.5 0 0 1 .22-.28.358.358 0 0 1 .236-.063l.033-.27c.02-.002.051-.005.07.007l-.03-.078.216.028c.007-.067.163-.325.088-.507.06.023.232-.107.153.038.188-.199.385-.39.564-.598l-.128.063c-.118-.074-.04-.324.085-.386-.01.201.148.132.272.136.008-.135-.155.003-.18-.09.01-.17.147-.433.242-.455l-.006.1c.072-.182.32-.11.423-.267.01-.2.168-.24-.047-.35.104-.223.188.018.254-.032-.028-.16.218-.402.343-.37-.218-.306.468-.48.249-.683l.25-.077c-.063-.048-.191-.175-.13-.327.156-.082.25.018.344.021l-.198-.241c.354-.298.637-.727.911-1.171.254-.457.506-.925.842-1.303.122-.424.215-.976.455-1.42l.013.065c.095-.141.173-.29.259-.436l-.255.29c.008-.115-.015-.215.027-.312.305-.466.72-1.105.77-1.8-.19-.517.374-.19.267-.662.019.043.06.07.083.11.02-.466.02-.721-.054-1.204.31.132.068-.285.228-.203l-.123-.069c.11-.076.187-.3.275-.244l-.123-.233.14.014c.066-.256.073-.83.38-.912-.043-.343-.013-.764.058-1.2l.109-.659.117-.634c-.098-.127-.076-.364-.076-.551l.182-.183c-.034-.194-.226-.41-.105-.577.019.002.032.01.04.024-.018-.194.088-.371-.06-.56.018-.208.116-.408.267-.336-.275-.033.06-.446.06-.446l.013-.122c.008-.08.02-.198.028-.348.015-.302.048-.736.06-1.266a27.128 27.128 0 0 0-.207-4.007c-.191-1.506-.534-3.074-1.007-4.38-.465-1.31-1.05-2.358-1.623-2.857-.156-.04-.325-.24-.445-.097-.112-.158.079-.33-.066-.324.013.156-.083.156-.18.175-.099.016-.207.036-.242.182l-.089-.14c-.1.007.181.166.002.191l.255-.047c.008.134-.019.218-.085.288.132.078.486.039.433.358l-.04-.07c.082.217-.111.186-.136.245l-.014-.049-.062.223c.036-.165-.235-.33-.182-.214.017.28.037-.087.13.098.052.116-.088.124-.165.143l.078.213c-.116.028-.038-.145-.128-.02l.204.234c-.27.137.228.255-.008.46-.124-.176-.091.046-.194.042.05.157.105.314.152.473-.028.057-.123-.102-.089-.033-.055.112.11.13.121.179-.068.063.1.357-.097.394-.047.357.279.075.244.407-.108.069-.087-.235-.175-.07l.12.305c-.063-.015-.205-.016-.208-.14.03.442-.1.815-.183 1.161-.094.35-.144.675.003 1.047-.122.134-.108-.062-.214-.121.282.525-.17.835-.088 1.303l.119-.01a1.712 1.712 0 0 0-.104.542c-.012.183-.002.368.015.556.04.373.087.758.044 1.136l.075-.096c.122.093.15.259.213.378-.059.023-.257-.07-.196.143.04-.048.079-.143.138-.12-.265.664-.118 2.008-.3 3.052.064 1.419-.308 2.92-.468 4.277.025-.208.299-.073.206.073-.281.172-.29.358-.283.552 0 .19.018.39-.194.569a2.253 2.253 0 0 1-.093.577c-.057.182-.134.355-.2.529-.136.346-.229.692-.169 1.098l-.138-.028c-.094.086-.01.143-.033.258l-.036-.015c-.136.243-.093.607-.216.73l.145.063c-.046.157-.145.038-.12.225l-.072-.032.071.234c-.252-.114-.183.423-.346.5-.022.217-.086.626-.262.899-.158-.005-.303.358-.481.549a21.75 21.75 0 0 1-.34.775c-.069.14-.132.287-.215.423-.082.137-.168.271-.256.398l.161.08-.07.145c-.034-.021-.063-.013-.067-.044-.238.006-.133.355-.306.402.18.014.078-.084.128-.162.14-.071.225.127.058.238l-.031-.024.018.155c-.127-.06-.236.003-.363-.06-.264.457-.262.895-.622 1.317-.093-.135-.206.34-.36.094-.114.323.211.085.276.317-.06.072-.058.195-.149.149-.026-.073-.178-.038-.152-.112l-.116.19c-.03.004-.03-.058-.03-.088-.072.227-.227.361-.377.489s-.311.238-.378.443c.056.085.125-.105.182-.02-.11.439-.368.162-.505.544l-.052-.149c-.007.154.045.272-.166.355-.143-.079.012-.217.018-.34-.094.102-.286.396-.11.41-.023.05-.023.045-.038.052a.09.09 0 0 1-.047-.006c-.035-.01-.076-.036-.102-.043.025.032.112.04.139.118-.123-.006-.215.067-.309.096-.017-.036-.049-.087-.05-.107.013.104-.02.083-.057.035-.04-.05-.08-.109-.11-.082Z"/><path fill="#ED3237" d="M32.269 38.956c-.217 1.029-.347 2.397-.647 3.395.149.268.085.592.056.925l-.28-.029.026.29c-.108.091-.003-.219-.151-.048l.146.14c-.103-.001-.223.679-.315.182-.083.35-.153.702-.23 1.053-.059.232.198.185.075.428-.09.036-.035-.104-.137-.104-.37.733.348 1.005.078 1.7l-.025-.069c.049.137-.007.37.032.38.294-.04-.124-.159.082-.347.229.064.071.298.25.318-.118.151-.002.276-.016.426-.191.224-.153.603-.37.76.051.136.254.314.217.58-.214.158-.167-.075-.278.172l.128.065c-.055.208-.088.169-.15.15-.044.227.154.22.02.49l-.105-.18c.017.22-.02.301-.08.593-.078-.02-.053-.136-.016-.219-.227.128.042.287.006.37.063-.016.123-.215.24-.094-.05.141.136.338-.04.417l-.107-.179c.06.32.146.188.042.53-.008-.021-.043-.017-.07-.029.142.247-.059.512-.12.837l-.027-.067c.027.139.137.227.119.297.103-.175.137-.119.27-.117-.259.215.212.41.026.793-.076-.017-.159-.126-.062-.225-.213-.168-.407-.211-.483-.472.034.16.043.345-.05.294l.209.076c-.006.093-.029.165-.038.234.131.057.247-.157.308.068.039.25-.236.1-.145.15.043.342.213.166.102.476-.014-.034-.043-.1-.02-.126-.118.218-.03.567-.295.605-.054-.041-.131-.056-.1-.141l.04.008c-.16-.275.027.217-.197.112.14-.002.074.318.033.462l.164-.03c.421.536-.312-.06-.303.428.075.316.057-.11.148.088-.05.203-.2.266-.158.576-.07.078-.17.243-.35.241.057.191-.128.555.036.674.177-.302-.158-.33.105-.679l.165.119c-.032.254.027.587-.052.758.037-.033.084-.046.119-.02.034.367.206.484.129.833-.163.035-.121-.17-.126-.32-.142.218-.025.237-.1.587-.14.01.024-.238-.11-.288l.018.395c-.008-.002-.018 0-.028-.002.23.071-.041.298.015.542-.026.57.284.67.457.99-.067.082-.127.105-.184.067.11-.135.027-.114-.032-.165.016.192-.246.411-.336.301.055.308.127-.105.192.083-.012.139-.02.278-.027.417.12-.046.149-.192.236.026.03.183.004.27-.009.507-.057-.035-.182.072-.172-.107-.046.115-.056.295.06.366.112-.259.094.427.283.235l-.113.259c.003-.06-.076-.067-.051-.154-.183.073.048.213.067.304-.035.091-.049.329-.119.349.051.082.013.283-.08.322.037.122.12.008.178.044l-.012.416c-.1.023-.379.063-.417.001.095.157.294.051.29.29-.197-.133-.138.32-.376.126-.138.141-.119.535-.06.75.159.127.08-.238.238-.23.08.605.508.62.462 1.064l.037-.117c.107.27.085.24.228.392-.2-.065-.505.346-.435.797.101.03.172-.267.331-.205l.05.297c-.014.023-.05-.007-.078-.043.094.261-.207.521.029.579l-.26.3.112-.12c.1.028.157.326.2.385.134.296.066.415-.036.598.073-.063.24-.216.3.02-.316.035-.054.52-.218.533.017.097-.06.284.072.278l-.197.01c.276-.014.305.343.402.605-.38-.004.076.293-.241.467.26.01.177.467.398.478.045.206-.188.227-.259.294l.113.08c-.097.127-.037.523-.07.773l.262.171-.084.102c.063.023.131.195.19.066l.012.12c.243-.043.105.148.262.356-.026.063-.086.062-.13.019.025.116-.11.095-.174.177.042-.095.527.314.56-.022.093-.044.206.119.19.241l-.197.121.257.08c.072.167-.046.277-.029.425-.053-.14-.501-.218-.39.16-.085-.192-.228-.26-.296-.354.01.082 0 .127-.12.026.137.284.153.067.26.355-.195.034-.233.133-.226.41l.086-.232a.12.12 0 0 1 .061.023c0-.078.024-.107.093-.142.015.06.331.276.23.356.214-.375.371.447.497.209.064.017.132.215.043.264-.21-.2-.166.248-.305.248.081.074.082-.233.19-.132.058.14-.023.28-.057.38l-.055-.05-.012.25c.106.006.09-.266.205-.077-.022.066.093.256.017.274-.161-.056-.31.07-.398-.095.06.142.233.6.348.354l.05.175c.043-.136.087-.486.225-.149l-.039.01.22.191-.06.138c.046-.02.104.002.133.09-.047.043-.039.134-.116.154.105.252.191.197.258.21.066.137.047.205-.087.18.05.204.197.537.156.707.192.225.016-.068.204.032-.222.351.233.908.465 1.3.22-.237.085.099.37.057-.129-.049-.023.489-.273.166l.134.206c-.076.223-.288-.311-.383.014.13.247.504.263.545.603-.118 0-.075.047-.033.1.044.051.088.106-.035.125-.102-.024-.12-.116-.176-.192l-.012.07c.227.568.305.041.584.251.198.308-.01.334-.088.4-.01.07.11.218.204.276-.222-.135-.081-.429.086-.403-.136.259.243.487.373.525-.025-.581-.162-.323-.152-.881-.1-.022-.287.09-.347-.209.183.111.102-.067.109-.128-.088.108-.142-.154-.224-.212.056-.118.334.025.253-.26l-.289.081c-.01-.124.215-.052.046-.24.195.05.198-.14.382.133.057-.462-.382-.478-.613-.71.03.02.068.007.099.026-.098-.027-.148-.134-.2-.21-.018-.213.186.09.24.008-.05-.096-.09-.196-.136-.294.006-.01.01-.014.015-.016-.07-.062-.126-.127-.07-.183.124.05.229.046.325.074l-.321-.23c.103-.005.045-.322.204-.13l-.233-.443.168-.113c-.08-.096-.117-.085-.084.055-.03-.169-.593-.582-.198-.636-.286-.31-.286-.461-.532-.878.286.287.092-.472.291-.133.013-.241-.206-.217-.292-.376.03-.185.239-.173.363-.027l-.151-.171.038-.009-.163-.14c.042-.216.178-.098.142-.296l-.181.01c.018-.052.037-.105.059-.159-.064.073-.13-.031-.182-.167l.038-.009-.08-.16c.15.138-.006-.166.137-.123-.032-.148-.035-.15-.14-.403l-.103.077c-.197-.315.17-.06.102-.34l-.13.053c.12-.457-.293-.652-.22-.985.072.163.218.083.179.089-.11-.245-.176-.668-.387-.903.178-.139.232-.174.267-.465-.051-.196-.076-.222-.204-.265.035-.206-.14-.55.005-.585-.122-.026-.005-.179-.12-.27l.056-.032-.134.04c.253-.394-.272-.556-.051-.946l.044.055-.072-.14c.057-.031.101.023.18.02l-.06-.685-.086.147c-.032-.142-.178-.223-.114-.397.24.249-.022-.228.134-.29.022.047.048.094.071.14-.038-.197-.033-.198-.172-.167-.073-.256.247-.206.076-.43l.01.17c-.077.06-.202-.052-.209-.167.019-.03.073-.116.098-.03-.071-.2-.03-.516-.093-.601.033-.115.134-.087.177-.03-.163-.428.01-.2-.142-.631l.08.002-.104-.145.153-.227-.097.084c-.023-.143-.084-.23-.05-.402l.12.062c-.091-.404.169-.48-.008-.86.02-.027.06.032.08.062-.197-.353.198-.278-.038-.632.04.021.087-.02.121-.006l-.081-.162.158.008-.237-.128.16-.104-.077-.063c.302-.18.072-.425.297-.666l-.2.043c-.425-.606.239-1.383.062-2.114l.157.017c-.061-.102-.116-.204-.174-.307.131-.158.13.102.213.054-.073-.325-.227-.143-.256-.52.115-.188.114.072.166.164-.06-.354-.132-.88-.024-1.124-.02-.007-.047-.024-.057-.011-.055-.24.036-.545.043-.805.072.012.08.076.09.142.016-.093.074-.216.006-.3l.13.106c.037-.195-.057-.587.109-.619-.063.02-.18 0-.158-.17.25-.075-.06-.476.094-.74.054.039.048.241.056.185.076-.132-.026-.266-.09-.394l.094.046c-.028-.218-.044-.435-.067-.654.25-.07.03-.607.2-.545.033-.227-.127.18-.122-.112.108-.066-.021-.267.134-.237l.015.033.011-.203.138.145c-.013-.177-.148-.322-.265-.346.107-.154.067-.397.216-.454l.03.066c0-.471.516-.708.31-1.105.026-.024.065-.015.055.04l.051-.282.106.084-.108-.495.077.017a4.34 4.34 0 0 0 .087-.563l.068-.636.027.066c-.049-.455.144-.408.11-.74.02.014.025.026.028.038l.046-.286.064.076c-.129-.241.328-.566.163-.46-.052-.133-.104-.356-.193-.409.049-.313.114-.057.215-.238.05-.224-.08-.29.051-.581l.077.021c.014-.145-.023-.245.004-.446l.026.067c-.099-.356.308-.358.02-.68.09-.124.094-.392.247-.347-.014-.424.007-.747.031-1.16.268-.01.001-.09.2-.3l-.14-.013c.114-.57.59-1.141.689-1.773l.14.015-.119-.16c.114-.326.234-.702.347-1.061.116-.36.219-.704.288-.97-.026-.191-.12-.498.004-.76l.011.033c.054-.5.13-1.025.356-1.526.047.048.102.008.121.076-.113-.165.08-.308.115-.419l-.137.103c-.086-.184.097-.363.217-.41l-.078-.277c.018-.011.046-.03.068-.026l-.059-.062.212-.074c-.02-.069.027-.392-.113-.538.066-.005.176-.21.158-.032l.305-.84-.102.115c-.138-.023-.147-.306-.045-.42.054.206.185.071.306.026-.036-.137-.149.066-.203-.018-.044-.172.005-.495.088-.555l.027.104c.012-.213.27-.234.32-.432-.053-.209.085-.307-.154-.342.031-.268.185-.05.233-.124-.071-.153.111-.485.241-.493-.29-.245.337-.642.073-.784l.225-.155c-.073-.031-.228-.127-.203-.305.133-.132.251-.051.344-.074l-.244-.197c.596-.814.803-2.08 1.397-2.987.094-.463.167-1.065.39-1.567l.016.07.259-.486-.26.327c.008-.124-.014-.23.028-.337.323-.52.733-1.218.855-1.96-.148-.566.392-.191.323-.706.015.048.055.078.073.123.071-.5.113-.77.105-1.301.292.173.108-.303.257-.198l-.112-.087c.118-.072.24-.302.317-.232l-.079-.264.137.033c.115-.265.235-.884.555-.92.068-.741.55-1.765.942-2.573-.057-.16.034-.406.102-.6l.237-.138c.032-.212-.074-.496.099-.634a.053.053 0 0 1 .03.038c.051-.209.21-.36.146-.602.097-.21.268-.384.382-.258-.245-.128.23-.436.23-.436l.828-1.718c.5-1.05 1.173-2.479 1.855-4.006 1.36-3.054 2.778-6.502 2.693-8.214-.083-.147-.055-.444-.246-.405.036-.225.298-.232.188-.322-.198.246-.294-.214-.561-.008l.038-.183c-.075-.07.009.274-.138.166l.217.144c-.092.127-.175.177-.274.192.037.166.319.388.047.63l.022-.09c-.1.25-.217.084-.278.118l.026-.053-.209.154c.15-.12.073-.463.027-.322-.193.263.09-.05.022.181-.048.141-.156.047-.225.01l-.1.245c-.105-.057.078-.157-.078-.11l-.024.357c-.298-.068-.02.39-.34.412.036-.248-.1-.023-.173-.098l-.23.541c-.062.033-.02-.179-.043-.091-.121.066-.01.195-.037.248-.096.012-.182.4-.355.302-.288.306.158.258-.101.548-.13-.007.098-.28-.084-.183l-.123.369c-.038-.056-.145-.15-.06-.27-.584.878-1.398 1.122-1.651 2.057-.187.063-.047-.128-.093-.254-.116.707-.693.753-.923 1.297l.103.058c-.677.596-.887 1.59-1.406 2.377l.121-.067c.052.163-.021.357-.035.518-.064-.003-.186-.204-.252.063.062-.034.149-.12.188-.066-.608.605-1.221 2.182-1.877 3.334-.62 1.67-1.576 3.368-2.163 5.022.09-.252.32-.038.182.124-.663.328-.279.916-.797 1.316-.226 1.007-.955 1.705-.936 2.73l-.138-.033c-.11.11-.032.18-.071.325l-.036-.017c-.173.311-.19.76-.322.927l.144.066c-.06.201-.152.06-.142.293l-.072-.034.054.287c-.25-.118-.225.546-.398.661-.045.272-.106.796-.297 1.164-.16.024-.325.501-.498.781-.176.602-.418 1.464-.722 2.204l.175.043-.054.201c-.036-.015-.064.005-.073-.03-.243.088-.09.475-.262.595.187-.05.07-.131.11-.242.135-.136.248.073.092.264l-.036-.017.04.179c-.138-.027-.245.089-.382.063-.184.662-.091 1.181-.37 1.835-.128-.117-.112.497-.329.281-.027.437.23-.002.356.24-.04.112-.004.252-.107.244-.045-.073-.186.044-.18-.056l-.064.278c-.028.02-.046-.051-.054-.087-.021.598-.467.931-.462 1.475.082.065.084-.19.168-.126.043.557-.3.393-.302.9l-.102-.134c.046.177.14.275-.036.494-.166 0-.065-.247-.103-.388-.055.17-.137.615.039.522-.008.22-.166.255-.239.354.037.014.157-.163.194-.023-.166.255-.285.687-.39 1.027-.037-.014-.1-.005-.111-.04.125.33-.21.208-.27.598Z"/></svg>